<svg id="svg" xmlns="http://www.w3.org/2000/svg" xmlns:xlink="http://www.w3.org/1999/xlink" width="205" height="auto" viewBox="0, 0, 400,311.4958448753463"><g id="svgg"><path id="path0" d="M121.167 126.083 L 121.167 135.833 131.167 135.833 L 141.167 135.833 141.167 126.083 L 141.167 116.333 131.167 116.333 L 121.167 116.333 121.167 126.083 M228.917 140.779 C 225.975 141.029,221.368 142.001,219.000 142.873 C 217.577 143.397,214.406 144.962,214.156 145.263 C 214.048 145.393,213.894 145.500,213.814 145.500 C 213.625 145.500,211.376 147.083,210.833 147.597 C 208.803 149.522,208.283 150.102,206.827 152.066 C 205.713 153.568,203.333 158.294,203.333 159.003 C 203.333 159.119,203.154 159.784,202.934 160.482 C 201.847 163.931,201.756 165.036,201.700 175.405 C 201.668 181.307,201.715 185.434,201.823 186.322 C 202.082 188.447,202.482 190.604,202.861 191.917 C 203.047 192.558,203.263 193.348,203.342 193.672 C 203.578 194.640,205.231 198.253,205.614 198.637 C 205.735 198.758,205.833 198.938,205.833 199.038 C 205.833 199.137,206.021 199.464,206.250 199.765 C 206.479 200.065,206.667 200.378,206.667 200.460 C 206.667 200.542,206.854 200.785,207.083 201.000 C 207.313 201.215,207.500 201.446,207.500 201.513 C 207.500 201.644,208.134 202.407,209.333 203.720 C 210.190 204.657,212.551 206.667,212.796 206.667 C 212.886 206.667,213.057 206.785,213.177 206.929 C 213.296 207.073,213.662 207.340,213.989 207.522 C 214.316 207.704,215.033 208.112,215.583 208.429 C 216.133 208.746,216.696 209.046,216.833 209.095 C 216.971 209.144,217.383 209.327,217.750 209.501 C 225.325 213.097,240.279 213.087,247.368 209.481 C 247.708 209.308,248.068 209.167,248.168 209.167 C 248.367 209.167,250.279 208.114,252.086 207.011 C 254.818 205.342,257.999 201.825,259.408 198.917 C 259.674 198.367,260.025 197.651,260.187 197.326 C 260.350 197.001,260.556 196.438,260.644 196.076 C 260.733 195.713,260.958 194.905,261.144 194.280 C 261.366 193.538,261.523 192.369,261.599 190.905 L 261.715 188.667 251.691 188.667 L 241.667 188.667 241.667 189.730 C 241.667 194.842,233.266 197.909,227.333 194.963 C 223.807 193.211,221.833 189.178,221.833 183.721 L 221.833 182.333 241.833 182.333 L 261.833 182.333 261.832 173.458 C 261.830 164.005,261.705 161.925,261.017 159.917 C 260.829 159.367,260.673 158.814,260.671 158.688 C 260.667 158.462,259.972 156.733,259.623 156.083 C 259.525 155.900,259.269 155.412,259.054 155.000 C 258.394 153.735,257.624 152.548,256.677 151.333 C 255.728 150.118,252.970 147.470,251.904 146.751 C 251.361 146.385,250.815 145.988,250.691 145.870 C 250.567 145.752,250.192 145.507,249.858 145.326 C 249.523 145.145,249.137 144.934,249.000 144.857 C 248.862 144.781,248.600 144.645,248.417 144.555 C 248.233 144.466,247.858 144.274,247.583 144.129 C 246.121 143.359,243.151 142.167,242.697 142.167 C 242.581 142.167,242.021 142.026,241.452 141.854 C 238.540 140.975,232.610 140.466,228.917 140.779 M294.833 140.778 C 289.211 141.342,283.957 143.036,280.437 145.420 C 279.899 145.785,279.334 146.158,279.181 146.250 C 278.574 146.616,276.544 148.551,275.496 149.763 C 270.424 155.631,268.998 166.015,272.419 172.167 C 272.546 172.396,272.814 172.883,273.014 173.250 C 273.213 173.617,273.479 173.977,273.605 174.050 C 273.731 174.123,273.833 174.274,273.833 174.386 C 273.833 174.577,276.427 177.333,276.607 177.333 C 276.653 177.333,277.041 177.627,277.470 177.985 C 278.836 179.126,281.915 180.774,283.745 181.344 C 284.017 181.428,284.560 181.648,284.952 181.832 C 285.343 182.016,285.755 182.167,285.868 182.167 C 285.981 182.167,286.638 182.349,287.328 182.573 C 289.376 183.235,291.560 183.838,291.917 183.838 C 292.100 183.838,292.850 184.025,293.583 184.252 C 294.317 184.480,295.104 184.668,295.333 184.669 C 295.563 184.671,296.350 184.858,297.083 185.086 C 297.817 185.314,298.534 185.500,298.678 185.500 C 299.036 185.500,302.233 186.555,303.225 187.001 C 305.827 188.169,307.151 190.282,306.254 191.833 C 306.122 192.063,305.958 192.361,305.891 192.496 C 304.921 194.451,299.643 195.619,295.667 194.760 C 291.683 193.899,289.667 191.893,289.667 188.792 L 289.667 187.500 279.649 187.500 L 269.630 187.500 269.701 189.958 C 269.819 194.008,270.944 197.735,272.964 200.763 C 273.213 201.136,273.593 201.718,273.808 202.054 C 274.023 202.391,274.270 202.667,274.355 202.667 C 274.441 202.667,274.559 202.792,274.617 202.946 C 274.849 203.549,277.687 206.132,279.125 207.048 C 279.515 207.297,280.115 207.678,280.458 207.896 C 282.043 208.901,284.840 210.135,286.750 210.671 C 289.289 211.385,290.041 211.563,290.989 211.675 C 291.591 211.747,292.683 211.899,293.417 212.014 C 297.817 212.704,306.072 211.908,310.171 210.400 C 310.769 210.180,311.312 210.000,311.378 210.000 C 311.795 210.000,315.467 208.193,316.650 207.405 C 317.053 207.136,317.502 206.842,317.646 206.750 C 318.292 206.341,320.312 204.633,320.928 203.974 C 321.918 202.918,323.000 201.562,323.000 201.378 C 323.000 201.290,323.148 201.084,323.329 200.921 C 323.510 200.757,323.707 200.464,323.768 200.270 C 323.828 200.076,324.003 199.729,324.156 199.500 C 326.787 195.572,327.093 186.636,324.783 181.201 C 324.499 180.533,324.169 179.905,324.050 179.806 C 323.931 179.707,323.833 179.551,323.833 179.460 C 323.833 178.562,320.176 175.055,317.532 173.417 C 316.501 172.778,315.982 172.500,315.821 172.500 C 315.718 172.500,315.430 172.354,315.179 172.176 C 314.929 171.997,314.430 171.741,314.070 171.606 C 310.522 170.273,310.354 170.215,308.333 169.619 C 306.501 169.079,304.089 168.468,301.583 167.908 C 299.078 167.349,296.644 166.724,295.667 166.389 C 295.254 166.247,294.692 166.076,294.417 166.008 C 287.850 164.386,289.950 158.389,297.260 157.891 C 301.932 157.573,305.333 160.002,305.333 163.657 L 305.333 164.500 315.250 164.500 L 325.167 164.500 325.167 163.049 C 325.167 157.306,323.070 152.351,318.889 148.208 C 317.848 147.177,316.888 146.333,316.756 146.333 C 316.625 146.333,316.457 146.232,316.383 146.108 C 316.214 145.821,314.138 144.526,313.000 143.997 C 312.862 143.933,312.494 143.746,312.181 143.581 C 308.393 141.588,300.109 140.250,294.833 140.778 M356.750 140.835 C 353.322 141.262,349.389 142.143,348.244 142.740 C 347.973 142.882,347.648 142.998,347.523 142.999 C 347.328 143.000,346.800 143.242,345.279 144.028 C 345.112 144.114,344.662 144.345,344.279 144.542 C 343.897 144.738,343.546 144.948,343.500 145.009 C 343.454 145.070,343.192 145.237,342.917 145.379 C 342.642 145.522,342.251 145.795,342.049 145.986 C 341.846 146.177,341.604 146.333,341.511 146.333 C 341.355 146.333,338.054 149.566,337.511 150.250 C 337.292 150.527,336.542 151.637,336.043 152.423 C 335.713 152.943,334.500 155.439,334.500 155.598 C 334.500 155.677,334.320 156.231,334.100 156.829 C 332.199 161.993,333.122 170.835,335.875 173.835 C 336.035 174.010,336.167 174.226,336.167 174.315 C 336.167 174.696,339.346 177.675,340.667 178.531 C 342.413 179.664,345.654 181.334,346.102 181.333 C 346.183 181.333,346.700 181.513,347.250 181.733 C 348.714 182.320,353.260 183.665,354.750 183.953 C 355.208 184.042,356.108 184.245,356.750 184.405 C 357.392 184.565,358.667 184.881,359.583 185.106 C 360.500 185.332,361.850 185.702,362.583 185.930 C 363.317 186.157,363.977 186.341,364.051 186.338 C 364.173 186.334,364.754 186.579,366.333 187.302 C 366.654 187.449,367.348 187.998,367.875 188.521 L 368.833 189.473 368.833 190.616 C 368.833 193.352,365.794 195.092,361.083 195.052 C 355.600 195.005,352.296 192.748,352.043 188.875 L 351.953 187.500 341.951 187.500 L 331.949 187.500 332.052 189.542 C 332.169 191.852,332.843 195.524,333.337 196.547 C 333.518 196.922,333.667 197.303,333.667 197.393 C 333.667 197.994,336.473 202.667,336.834 202.667 C 336.926 202.667,337.000 202.749,337.000 202.850 C 337.000 203.340,340.589 206.496,342.422 207.618 C 343.394 208.213,345.136 209.139,345.489 209.249 C 345.711 209.318,346.124 209.515,346.405 209.687 C 346.687 209.858,347.052 209.999,347.217 209.999 C 347.382 210.000,347.731 210.111,347.994 210.247 C 348.456 210.486,351.058 211.227,352.417 211.506 C 357.451 212.541,364.778 212.452,369.250 211.302 C 369.983 211.113,370.883 210.901,371.250 210.830 C 371.992 210.687,374.344 209.852,375.178 209.436 C 375.475 209.288,375.808 209.167,375.919 209.167 C 376.030 209.167,376.396 208.979,376.734 208.750 C 377.072 208.521,377.431 208.333,377.533 208.333 C 377.635 208.333,377.964 208.146,378.265 207.917 C 378.565 207.688,378.879 207.500,378.963 207.500 C 379.046 207.500,379.333 207.313,379.599 207.084 C 379.865 206.854,380.136 206.667,380.200 206.667 C 380.426 206.666,382.432 204.942,383.469 203.855 C 384.695 202.571,386.388 200.169,386.774 199.167 C 386.827 199.029,387.039 198.542,387.246 198.083 C 389.398 193.321,389.376 185.800,387.197 181.167 C 386.644 179.992,385.496 178.167,385.310 178.167 C 385.231 178.167,385.167 178.076,385.167 177.964 C 385.167 177.754,384.998 177.558,383.800 176.377 C 383.406 175.989,382.931 175.520,382.744 175.336 C 382.558 175.151,382.314 175.000,382.202 175.000 C 382.091 175.000,382.000 174.935,382.000 174.857 C 382.000 174.684,379.945 173.333,379.683 173.333 C 379.582 173.333,379.500 173.275,379.500 173.205 C 379.500 173.048,378.925 172.757,375.833 171.353 C 374.943 170.948,372.821 170.194,372.000 169.989 C 371.679 169.909,370.987 169.692,370.462 169.505 C 369.938 169.319,369.397 169.167,369.262 169.167 C 369.126 169.167,368.355 168.989,367.549 168.773 C 366.743 168.556,365.183 168.173,364.083 167.922 C 356.873 166.275,354.008 165.136,353.249 163.615 C 351.809 160.729,355.187 157.953,360.167 157.930 C 364.775 157.908,367.522 159.840,367.788 163.292 L 367.881 164.500 377.774 164.500 L 387.667 164.500 387.665 163.208 C 387.664 161.101,386.955 157.165,386.314 155.708 C 385.647 154.191,385.135 153.082,384.987 152.833 C 384.905 152.696,384.714 152.358,384.562 152.083 C 384.410 151.808,384.108 151.358,383.891 151.083 C 383.673 150.808,383.440 150.508,383.372 150.416 C 382.395 149.079,378.534 145.500,378.069 145.500 C 378.014 145.500,377.733 145.333,377.446 145.128 C 373.141 142.063,363.291 140.019,356.750 140.835 M187.917 141.493 C 185.793 141.670,181.830 142.674,179.833 143.540 C 179.008 143.898,176.612 145.077,176.080 145.387 C 175.895 145.495,175.370 145.801,174.913 146.067 C 174.457 146.332,173.971 146.653,173.833 146.779 C 173.696 146.905,173.290 147.232,172.932 147.506 L 172.282 148.005 172.016 147.605 C 171.870 147.386,171.338 146.625,170.833 145.914 C 170.329 145.204,169.842 144.501,169.750 144.353 C 169.658 144.205,169.377 143.838,169.125 143.536 C 168.873 143.235,168.667 142.916,168.667 142.828 C 168.667 142.727,166.143 142.667,161.917 142.667 L 155.167 142.667 155.167 176.417 L 155.167 210.167 165.250 210.167 L 175.333 210.167 175.332 191.042 L 175.331 171.917 175.756 170.333 C 175.989 169.462,176.365 168.374,176.590 167.914 C 176.816 167.454,177.000 167.011,177.000 166.930 C 177.000 166.848,177.188 166.536,177.417 166.235 C 177.646 165.935,177.833 165.622,177.833 165.540 C 177.833 165.458,178.021 165.215,178.250 165.000 C 178.479 164.785,178.672 164.528,178.679 164.429 C 178.686 164.331,179.175 163.837,179.766 163.333 C 180.357 162.829,180.964 162.305,181.115 162.168 C 182.109 161.270,185.836 159.614,187.500 159.332 C 190.589 158.807,191.798 158.669,193.293 158.668 L 195.003 158.667 194.960 150.042 L 194.917 141.417 192.083 141.399 C 190.525 141.389,188.650 141.431,187.917 141.493 M121.167 176.417 L 121.167 210.167 131.167 210.167 L 141.167 210.167 141.167 176.417 L 141.167 142.667 131.167 142.667 L 121.167 142.667 121.167 176.417 M236.010 157.384 C 237.737 157.974,237.827 158.029,239.030 159.210 C 240.524 160.677,241.159 162.558,241.422 166.292 L 241.543 168.000 231.688 168.000 L 221.833 168.000 221.839 167.542 C 221.940 159.659,228.631 154.864,236.010 157.384 " stroke="none" fill="#fcfcfc" fill-rule="evenodd"></path><path id="path1" d="M198.583 10.912 C 197.109 11.406,196.161 11.815,195.909 12.068 C 195.762 12.214,195.565 12.333,195.469 12.333 C 195.373 12.333,194.835 12.723,194.273 13.199 C 193.267 14.050,193.031 14.260,191.466 15.697 C 191.034 16.093,190.288 16.754,189.806 17.167 C 189.325 17.579,188.778 18.073,188.591 18.264 C 188.403 18.454,187.500 19.269,186.583 20.074 C 185.667 20.879,184.755 21.698,184.557 21.894 C 184.359 22.090,183.807 22.587,183.332 23.000 C 182.856 23.412,182.261 23.938,182.009 24.167 C 181.757 24.396,181.140 24.958,180.637 25.417 C 180.135 25.875,179.129 26.775,178.404 27.417 C 177.678 28.058,176.843 28.808,176.548 29.083 C 176.254 29.358,175.628 29.921,175.157 30.333 C 174.686 30.746,174.059 31.308,173.765 31.583 C 173.470 31.858,172.933 32.344,172.573 32.664 C 170.085 34.864,168.531 36.251,168.209 36.559 C 168.003 36.756,167.455 37.254,166.990 37.667 C 166.526 38.079,165.904 38.642,165.608 38.917 C 165.312 39.192,164.514 39.904,163.833 40.500 C 163.152 41.096,162.139 41.996,161.580 42.500 C 161.022 43.004,159.975 43.942,159.253 44.583 C 158.532 45.225,157.708 45.975,157.422 46.250 C 157.137 46.525,156.347 47.237,155.667 47.833 C 153.241 49.960,149.939 52.914,149.241 53.583 C 148.602 54.196,148.183 54.570,145.333 57.074 C 144.096 58.161,142.924 59.208,142.729 59.400 C 142.535 59.593,141.789 60.275,141.073 60.917 C 140.356 61.558,139.313 62.496,138.755 63.000 C 137.750 63.908,135.638 65.786,134.537 66.750 C 134.223 67.025,133.580 67.607,133.108 68.044 C 131.881 69.179,131.762 69.286,129.917 70.918 C 129.000 71.728,128.131 72.509,127.984 72.654 C 127.838 72.798,127.285 73.292,126.755 73.750 C 126.224 74.208,125.430 74.921,124.990 75.333 C 124.550 75.746,123.973 76.271,123.709 76.500 C 123.445 76.729,122.634 77.449,121.906 78.100 C 121.179 78.751,120.058 79.754,119.417 80.328 C 118.775 80.902,118.190 81.476,118.117 81.603 C 118.043 81.730,117.906 81.833,117.812 81.833 C 117.718 81.833,117.317 82.152,116.922 82.542 C 116.527 82.931,115.877 83.540,115.477 83.895 C 115.077 84.250,113.925 85.272,112.917 86.167 C 111.908 87.061,110.752 88.102,110.347 88.480 C 109.942 88.858,109.565 89.167,109.509 89.167 C 109.453 89.167,109.219 89.373,108.988 89.625 C 108.608 90.040,107.979 90.621,106.321 92.089 C 103.268 94.791,102.509 95.475,102.034 95.950 C 101.731 96.253,101.445 96.500,101.397 96.500 C 101.349 96.500,100.932 96.856,100.471 97.292 C 98.945 98.732,98.570 99.079,97.991 99.582 C 95.794 101.491,94.339 102.794,93.867 103.274 C 93.565 103.582,93.263 103.833,93.196 103.833 C 93.129 103.833,92.886 104.040,92.655 104.292 C 92.241 104.746,91.384 105.522,88.000 108.511 C 87.037 109.361,86.003 110.307,85.700 110.612 C 85.398 110.917,85.096 111.167,85.029 111.167 C 84.962 111.167,84.719 111.373,84.488 111.625 C 84.258 111.877,83.476 112.608,82.751 113.250 C 82.027 113.892,81.013 114.792,80.498 115.250 C 79.984 115.708,78.971 116.608,78.246 117.250 C 77.522 117.892,76.694 118.642,76.407 118.917 C 75.801 119.496,74.386 120.762,71.000 123.752 C 69.671 124.925,68.394 126.080,68.163 126.318 C 67.931 126.556,67.341 127.087,66.850 127.500 C 66.360 127.912,65.799 128.410,65.604 128.606 C 65.410 128.802,64.500 129.618,63.583 130.419 C 62.667 131.220,61.757 132.035,61.562 132.229 C 61.367 132.424,60.818 132.921,60.341 133.333 C 59.434 134.118,58.861 134.632,57.750 135.659 C 57.383 135.997,56.371 136.901,55.500 137.667 C 53.664 139.281,53.204 139.700,52.129 140.739 C 51.696 141.157,51.292 141.500,51.232 141.500 C 51.171 141.500,50.957 141.669,50.756 141.875 C 50.242 142.404,49.170 143.380,47.333 144.995 C 46.462 145.760,45.563 146.560,45.333 146.771 C 44.072 147.934,43.078 148.832,42.310 149.500 C 41.836 149.912,41.292 150.406,41.099 150.596 C 40.907 150.786,40.150 151.468,39.417 152.111 C 38.683 152.754,37.746 153.586,37.333 153.960 C 36.921 154.334,36.222 154.964,35.781 155.361 C 35.340 155.758,34.736 156.308,34.439 156.583 C 34.142 156.858,33.640 157.311,33.324 157.589 C 32.634 158.197,29.726 160.785,28.016 162.314 C 27.338 162.920,26.547 163.642,26.260 163.917 C 25.972 164.192,25.182 164.904,24.503 165.500 C 21.936 167.754,19.907 169.558,19.649 169.816 C 19.502 169.963,18.789 170.608,18.066 171.250 C 16.046 173.041,13.421 175.695,13.120 176.251 C 12.034 178.257,11.654 179.315,11.481 180.810 C 11.157 183.620,11.575 185.842,12.847 188.083 C 13.470 189.180,14.194 190.043,17.265 193.350 C 17.639 193.753,18.606 194.833,19.412 195.750 C 20.218 196.667,20.999 197.538,21.147 197.687 C 21.296 197.836,21.942 198.541,22.583 199.255 C 23.225 199.968,23.959 200.784,24.214 201.068 C 24.469 201.351,24.849 201.771,25.059 202.000 C 25.268 202.229,26.110 203.167,26.928 204.083 C 27.747 205.000,28.656 206.012,28.949 206.333 C 29.734 207.193,30.284 207.801,31.583 209.244 C 32.225 209.956,32.829 210.624,32.925 210.728 C 33.021 210.832,33.840 211.742,34.744 212.750 C 35.648 213.758,36.544 214.742,36.736 214.936 C 36.927 215.131,37.571 215.835,38.167 216.503 C 38.762 217.170,39.362 217.840,39.500 217.992 C 40.236 218.803,42.484 221.323,42.917 221.821 C 43.192 222.138,43.792 222.793,44.250 223.278 C 44.708 223.762,45.458 224.579,45.917 225.093 C 46.375 225.606,46.938 226.232,47.167 226.482 C 47.396 226.733,47.842 227.233,48.158 227.594 C 49.191 228.773,51.888 231.742,52.240 232.088 C 52.429 232.274,52.921 232.827,53.333 233.317 C 53.746 233.807,54.244 234.367,54.440 234.562 C 54.636 234.757,55.801 236.042,57.030 237.417 C 60.205 240.971,60.524 241.325,61.083 241.910 C 61.358 242.197,62.108 243.027,62.750 243.753 C 64.748 246.015,65.863 247.239,66.188 247.527 C 66.359 247.679,66.500 247.851,66.500 247.908 C 66.500 247.966,66.856 248.378,67.292 248.825 C 67.727 249.271,68.196 249.771,68.333 249.936 C 68.471 250.101,69.033 250.730,69.583 251.333 C 70.133 251.937,71.108 253.024,71.750 253.748 C 72.952 255.107,74.208 256.485,75.083 257.406 C 75.358 257.696,76.108 258.527,76.750 259.253 C 77.392 259.980,78.329 261.030,78.833 261.588 C 81.604 264.653,82.125 265.230,82.562 265.717 C 82.825 266.010,83.354 266.587,83.738 267.000 C 84.122 267.412,85.061 268.462,85.825 269.333 C 86.588 270.204,87.372 271.074,87.565 271.266 C 87.758 271.457,88.254 272.007,88.667 272.487 C 89.079 272.966,89.792 273.751,90.250 274.231 C 90.708 274.711,91.308 275.362,91.583 275.679 C 92.686 276.949,94.786 279.277,95.375 279.883 C 95.719 280.237,96.000 280.569,96.000 280.620 C 96.000 280.672,96.319 281.029,96.708 281.415 C 97.098 281.801,97.792 282.552,98.250 283.084 C 98.708 283.617,99.204 284.172,99.351 284.318 C 99.498 284.464,100.316 285.371,101.169 286.333 C 102.590 287.936,103.153 288.556,104.583 290.085 C 104.858 290.379,105.484 291.049,105.974 291.573 C 106.985 292.656,108.803 294.167,109.094 294.167 C 109.201 294.167,109.467 294.301,109.686 294.465 C 111.853 296.094,116.706 296.465,121.333 295.357 C 124.339 294.637,126.458 294.167,126.683 294.170 C 126.811 294.171,127.779 293.982,128.833 293.748 C 131.698 293.114,134.175 292.576,136.500 292.085 C 137.646 291.843,139.408 291.468,140.417 291.251 C 141.425 291.034,143.037 290.694,144.000 290.495 C 146.940 289.887,149.497 289.335,151.348 288.907 C 152.319 288.683,153.249 288.500,153.415 288.500 C 153.582 288.500,154.512 288.316,155.484 288.091 C 156.455 287.866,158.112 287.497,159.167 287.270 C 161.787 286.707,164.872 286.048,167.167 285.561 C 168.221 285.337,169.908 284.975,170.917 284.756 C 171.925 284.537,173.650 284.168,174.750 283.935 C 176.901 283.480,179.557 282.914,182.750 282.231 C 183.850 281.996,185.463 281.657,186.333 281.478 C 187.204 281.299,188.742 280.974,189.750 280.756 C 190.758 280.537,192.521 280.161,193.667 279.919 C 197.473 279.115,201.788 278.195,205.500 277.396 C 209.418 276.552,211.136 276.184,213.167 275.754 C 214.313 275.511,216.075 275.135,217.083 274.918 C 218.846 274.541,221.403 274.000,224.583 273.335 C 225.408 273.162,226.946 272.835,228.000 272.608 C 231.730 271.805,237.318 270.614,239.917 270.068 C 241.017 269.837,242.742 269.468,243.750 269.248 C 244.758 269.028,246.521 268.650,247.667 268.408 C 252.797 267.324,253.633 267.117,254.419 266.737 C 254.879 266.515,255.322 266.333,255.404 266.333 C 255.485 266.333,255.798 266.146,256.098 265.917 C 256.399 265.688,256.715 265.500,256.802 265.500 C 256.889 265.500,257.481 264.992,258.117 264.370 C 261.116 261.442,262.132 257.582,261.101 253.033 C 260.858 251.961,260.466 250.183,260.230 249.083 C 259.789 247.025,259.284 244.681,258.563 241.333 C 258.151 239.422,257.762 237.612,256.915 233.667 C 256.669 232.521,256.291 230.758,256.074 229.750 C 255.857 228.742,255.526 227.167,255.337 226.250 C 253.883 219.198,253.320 216.969,253.023 217.090 C 252.873 217.151,252.563 217.259,252.333 217.328 C 252.104 217.398,251.633 217.616,251.287 217.811 C 250.940 218.007,250.567 218.167,250.457 218.167 C 250.348 218.167,249.769 218.346,249.171 218.565 C 246.321 219.610,242.237 220.516,238.877 220.848 L 236.837 221.050 236.930 221.733 C 236.981 222.109,237.211 223.279,237.441 224.333 C 237.672 225.387,238.001 226.925,238.173 227.750 C 238.344 228.575,238.678 230.150,238.914 231.250 C 239.315 233.116,239.552 234.210,240.576 238.917 C 240.795 239.925,241.173 241.688,241.415 242.833 C 242.172 246.417,242.627 248.528,242.990 250.149 C 243.183 251.010,243.314 251.741,243.282 251.774 C 243.209 251.846,241.106 252.341,238.500 252.898 C 233.551 253.956,232.284 254.227,230.500 254.606 C 229.446 254.830,227.758 255.192,226.750 255.411 C 225.742 255.629,224.017 255.998,222.917 256.230 C 221.817 256.462,220.017 256.843,218.917 257.078 C 217.817 257.313,216.017 257.695,214.917 257.928 C 213.817 258.161,212.092 258.531,211.083 258.749 C 210.075 258.968,208.537 259.296,207.667 259.478 C 202.460 260.565,199.974 261.093,192.167 262.770 C 191.112 262.997,189.455 263.366,188.484 263.591 C 187.512 263.816,186.612 263.999,186.484 263.997 C 186.355 263.995,185.387 264.185,184.333 264.418 C 181.468 265.053,178.992 265.590,176.667 266.082 C 175.521 266.324,173.758 266.699,172.750 266.916 C 171.742 267.133,170.129 267.473,169.167 267.672 C 166.227 268.280,163.670 268.832,161.818 269.259 C 160.848 269.483,159.917 269.667,159.751 269.667 C 159.585 269.667,158.654 269.851,157.683 270.076 C 156.711 270.301,155.054 270.670,154.000 270.896 C 151.380 271.459,148.294 272.119,146.000 272.606 C 144.946 272.830,143.258 273.192,142.250 273.411 C 141.242 273.629,139.517 273.999,138.417 274.232 C 137.317 274.465,135.554 274.838,134.500 275.063 C 133.446 275.287,131.796 275.633,130.833 275.833 C 127.054 276.618,122.377 277.626,119.667 278.239 C 118.612 278.478,117.662 278.671,117.554 278.670 C 117.344 278.666,116.333 277.718,116.333 277.524 C 116.333 277.460,116.127 277.218,115.875 276.987 C 115.623 276.755,114.929 276.017,114.333 275.346 C 113.737 274.675,113.172 274.041,113.077 273.938 C 112.982 273.835,112.201 272.962,111.342 272.000 C 110.482 271.037,109.602 270.063,109.385 269.833 C 109.169 269.604,108.620 269.004,108.167 268.500 C 107.713 267.996,107.163 267.396,106.945 267.167 C 106.727 266.938,105.548 265.625,104.326 264.250 C 101.970 261.599,101.223 260.770,100.417 259.911 C 99.560 258.998,98.787 258.142,97.259 256.417 C 96.447 255.500,95.588 254.546,95.350 254.297 C 95.111 254.048,94.579 253.460,94.167 252.989 C 93.153 251.833,92.706 251.337,91.902 250.478 C 91.527 250.078,90.520 248.963,89.664 248.000 C 87.953 246.076,87.174 245.216,86.417 244.415 C 86.142 244.124,85.429 243.338,84.833 242.668 C 84.237 241.999,83.635 241.330,83.493 241.184 C 83.352 241.037,82.641 240.242,81.913 239.417 C 81.184 238.592,80.344 237.669,80.044 237.367 C 79.745 237.065,79.500 236.763,79.500 236.696 C 79.500 236.629,79.294 236.384,79.042 236.151 C 78.498 235.648,77.824 234.914,74.847 231.585 C 72.477 228.933,71.723 228.101,70.917 227.249 C 70.642 226.958,70.189 226.464,69.911 226.152 C 69.633 225.839,68.773 224.871,68.000 224.000 C 67.226 223.129,66.353 222.154,66.060 221.833 C 65.496 221.218,64.200 219.788,63.500 219.009 C 63.271 218.755,62.777 218.217,62.402 217.815 C 62.028 217.412,61.060 216.333,60.250 215.417 C 58.881 213.865,58.171 213.085,56.917 211.751 C 56.642 211.459,55.929 210.672,55.333 210.003 C 54.737 209.334,54.174 208.704,54.081 208.602 C 53.988 208.500,53.281 207.704,52.510 206.833 C 51.740 205.963,50.860 205.003,50.555 204.700 C 50.250 204.398,50.000 204.096,50.000 204.029 C 50.000 203.962,49.794 203.717,49.542 203.484 C 49.013 202.995,48.328 202.251,45.650 199.250 C 43.704 197.070,43.388 196.720,41.440 194.583 C 40.855 193.942,39.637 192.592,38.733 191.583 C 37.829 190.575,36.845 189.503,36.545 189.200 C 36.245 188.898,36.000 188.596,36.000 188.529 C 36.000 188.462,35.794 188.217,35.542 187.983 C 35.290 187.750,34.596 187.006,34.000 186.331 C 33.404 185.655,32.762 184.948,32.574 184.760 C 32.385 184.571,31.917 184.071,31.533 183.649 L 30.835 182.881 31.219 182.482 C 31.430 182.263,32.159 181.596,32.839 181.000 C 35.223 178.909,38.609 175.874,39.254 175.250 C 39.539 174.975,40.170 174.412,40.656 174.000 C 41.143 173.588,41.663 173.130,41.812 172.983 C 41.961 172.836,42.871 172.016,43.833 171.161 C 45.631 169.566,46.489 168.790,47.425 167.917 C 47.720 167.642,48.356 167.079,48.839 166.667 C 49.322 166.254,49.912 165.723,50.150 165.486 C 50.388 165.248,51.518 164.236,52.661 163.236 C 53.804 162.235,55.054 161.117,55.438 160.750 C 55.823 160.383,56.355 159.896,56.620 159.667 C 56.885 159.438,57.730 158.688,58.497 158.000 C 59.264 157.313,60.347 156.345,60.904 155.850 C 62.849 154.120,64.703 152.452,65.936 151.324 C 66.552 150.759,68.723 148.831,71.244 146.607 C 71.883 146.044,72.640 145.358,72.926 145.083 C 73.475 144.557,74.027 144.060,76.333 142.022 C 77.112 141.333,77.997 140.521,78.300 140.218 C 78.602 139.915,78.904 139.667,78.971 139.667 C 79.038 139.667,79.283 139.460,79.517 139.208 C 79.750 138.956,80.492 138.262,81.166 137.667 C 81.840 137.071,82.513 136.471,82.663 136.333 C 82.812 136.196,83.605 135.486,84.425 134.755 C 85.246 134.025,86.164 133.181,86.466 132.880 C 86.769 132.579,87.071 132.333,87.138 132.333 C 87.204 132.333,87.447 132.127,87.677 131.875 C 87.907 131.623,88.650 130.929,89.327 130.333 C 90.005 129.737,90.680 129.137,90.828 129.000 C 90.976 128.862,91.732 128.191,92.507 127.508 C 93.282 126.824,94.201 125.981,94.548 125.633 C 94.895 125.285,95.235 125.000,95.302 125.000 C 95.370 125.000,95.614 124.794,95.844 124.542 C 96.306 124.034,97.368 123.060,98.430 122.167 C 99.192 121.526,103.335 117.848,104.000 117.221 C 104.229 117.005,104.829 116.452,105.333 115.992 C 105.837 115.532,106.438 114.981,106.667 114.767 C 106.896 114.554,108.171 113.422,109.500 112.252 C 110.829 111.081,112.080 109.965,112.280 109.770 C 112.479 109.576,113.032 109.079,113.508 108.667 C 113.984 108.254,114.533 107.761,114.728 107.570 C 114.924 107.380,116.171 106.263,117.500 105.089 C 118.829 103.915,120.104 102.779,120.333 102.566 C 120.563 102.352,120.982 101.969,121.266 101.714 C 121.549 101.459,122.365 100.725,123.079 100.083 C 123.792 99.442,124.498 98.802,124.646 98.661 C 124.795 98.520,125.554 97.846,126.333 97.162 C 127.112 96.479,128.012 95.679,128.333 95.385 C 129.436 94.376,131.269 92.724,133.476 90.750 C 133.989 90.292,134.654 89.692,134.954 89.417 C 135.254 89.142,135.883 88.579,136.352 88.167 C 136.822 87.754,137.410 87.229,137.660 87.000 C 138.108 86.589,140.527 84.408,140.895 84.083 C 141.715 83.359,144.188 81.138,144.700 80.667 C 145.048 80.346,145.719 79.746,146.191 79.333 C 146.664 78.921,147.287 78.358,147.576 78.083 C 147.865 77.808,148.361 77.358,148.679 77.083 C 150.572 75.444,152.761 73.487,154.086 72.250 C 154.380 71.975,155.138 71.291,155.769 70.731 C 160.908 66.168,161.293 65.823,162.252 64.917 C 162.544 64.642,163.335 63.929,164.011 63.333 C 166.538 61.106,169.786 58.196,170.428 57.583 C 170.978 57.059,172.293 55.882,175.083 53.417 C 177.088 51.646,177.925 50.888,178.491 50.333 C 178.725 50.103,179.404 49.503,179.999 48.999 C 180.594 48.496,181.194 47.960,181.332 47.808 C 181.470 47.657,182.333 46.876,183.250 46.073 C 185.184 44.380,185.415 44.173,186.495 43.167 C 186.937 42.754,187.683 42.086,188.151 41.682 C 188.620 41.278,189.248 40.716,189.548 40.432 C 189.848 40.149,190.947 39.167,191.990 38.250 C 193.033 37.333,194.244 36.246,194.682 35.833 C 196.669 33.960,196.830 33.897,196.827 35.000 C 196.827 35.229,197.013 36.204,197.241 37.167 C 197.469 38.129,197.801 39.629,197.979 40.500 C 198.319 42.157,198.678 43.837,200.437 52.000 C 201.177 55.432,202.382 61.047,202.941 63.667 C 203.166 64.721,203.531 66.408,203.752 67.417 C 203.972 68.425,204.337 70.112,204.563 71.167 C 204.788 72.221,205.158 73.946,205.385 75.000 C 205.612 76.054,205.997 77.854,206.241 79.000 C 206.485 80.146,206.865 81.908,207.086 82.917 C 207.306 83.925,207.633 85.462,207.811 86.333 C 208.115 87.809,208.398 89.133,209.450 94.000 C 209.678 95.054,210.041 96.742,210.257 97.750 C 210.473 98.758,210.836 100.446,211.063 101.500 C 211.729 104.592,212.270 107.107,212.748 109.333 C 212.994 110.479,213.373 112.242,213.589 113.250 C 213.806 114.258,214.168 115.946,214.394 117.000 C 215.984 124.409,217.215 130.099,217.630 131.958 C 217.931 133.306,217.912 133.295,219.118 132.837 C 219.595 132.655,220.382 132.438,220.868 132.355 C 221.353 132.271,222.500 132.051,223.417 131.867 C 225.866 131.374,229.057 131.087,232.125 131.085 C 233.615 131.084,234.833 131.033,234.833 130.971 C 234.833 130.794,234.456 128.984,233.260 123.417 C 233.043 122.408,232.664 120.646,232.418 119.500 C 231.664 115.984,231.164 113.665,230.747 111.750 C 230.528 110.742,230.149 108.979,229.906 107.833 C 229.663 106.688,229.278 104.888,229.050 103.833 C 228.822 102.779,228.459 101.092,228.243 100.083 C 226.699 92.873,226.207 90.623,225.746 88.665 C 225.519 87.702,225.334 86.765,225.334 86.582 C 225.334 86.399,225.185 85.612,225.003 84.833 C 224.691 83.498,224.418 82.243,223.441 77.667 C 223.216 76.612,222.829 74.813,222.582 73.667 C 222.334 72.521,221.947 70.721,221.722 69.667 C 221.497 68.612,221.133 66.925,220.913 65.917 C 220.693 64.908,220.322 63.183,220.089 62.083 C 219.413 58.901,218.857 56.385,218.413 54.499 C 218.186 53.536,218.000 52.599,218.000 52.417 C 218.000 52.235,217.814 51.298,217.587 50.335 C 217.360 49.371,216.982 47.683,216.747 46.583 C 216.512 45.483,216.141 43.758,215.922 42.750 C 215.703 41.742,215.362 40.129,215.165 39.167 C 214.968 38.204,214.626 36.592,214.406 35.583 C 214.186 34.575,213.815 32.850,213.581 31.750 C 212.217 25.339,211.544 22.252,211.066 20.213 C 210.846 19.277,210.667 18.391,210.667 18.244 C 210.667 18.098,210.479 17.569,210.250 17.068 C 210.021 16.567,209.833 16.125,209.833 16.087 C 209.833 15.954,208.780 14.416,208.432 14.040 C 207.309 12.827,206.571 12.247,205.438 11.690 C 203.346 10.660,200.352 10.320,198.583 10.912 " stroke="none" fill="#24f4a4" fill-rule="evenodd"></path><path id="path2" d="" stroke="none" fill="#100f8d0" fill-rule="evenodd"></path><path id="path3" d="" stroke="none" fill="#100f8d0" fill-rule="evenodd"></path><path id="path4" d="" stroke="none" fill="#100f8d0" fill-rule="evenodd"></path></g></svg>
